HIERARCHY
ROOT Hips
{
    OFFSET 0.000000 0.000000 0.000000
    CHANNELS 6 Xposition Yposition Zposition Zrotation Xrotation Yrotation
    JOINT Spine
    {
        OFFSET -0.000000 14.517291 0.000000
        CHANNELS 3 Zrotation Xrotation Yrotation
        JOINT Spine1
        {
            OFFSET -0.000000 37.558300 0.000000
            CHANNELS 3 Zrotation Xrotation Yrotation
            JOINT Neck
            {
                OFFSET -0.000000 37.404057 3.400369
                CHANNELS 3 Zrotation Xrotation Yrotation
                JOINT Head
                {
                    OFFSET -0.000000 24.785618 -3.540803
                    CHANNELS 3 Zrotation Xrotation Yrotation
                    End Site
                    {
                        OFFSET -0.000000 35.408028 0.000000
                    }
                }
            }
            JOINT LeftShoulder
            {
                OFFSET 6.992933 33.973492 -0.192664
                CHANNELS 3 Zrotation Xrotation Yrotation
                JOINT LeftArm
                {
                    OFFSET 21.527611 0.000000 0.000000
                    CHANNELS 3 Zrotation Xrotation Yrotation
                    JOINT LeftForeArm
                    {
                        OFFSET 56.353916 0.000000 0.000000
                        CHANNELS 3 Zrotation Xrotation Yrotation
                        JOINT LeftHand
                        {
                            OFFSET 47.774071 0.000000 0.000000
                            CHANNELS 3 Zrotation Xrotation Yrotation
                            End Site
                            {
                                OFFSET 26.556021 0.000000 0.000000
                            }
                        }
                    }
                }
            }
            JOINT RightShoulder
            {
                OFFSET -7.065357 33.973492 -0.192664
                CHANNELS 3 Zrotation Xrotation Yrotation
                JOINT RightArm
                {
                    OFFSET -21.527611 0.000000 0.000000
                    CHANNELS 3 Zrotation Xrotation Yrotation
                    JOINT RightForeArm
                    {
                        OFFSET -56.353916 0.000000 0.000000
                        CHANNELS 3 Zrotation Xrotation Yrotation
                        JOINT RightHand
                        {
                            OFFSET -47.774071 0.000000 0.000000
                            CHANNELS 3 Zrotation Xrotation Yrotation
                            End Site
                            {
                                OFFSET -26.556021 0.000000 0.000000
                            }
                        }
                    }
                }
            }
        }
    }
    JOINT LeftUpLeg
    {
        OFFSET 17.704014 0.000000 0.000000
        CHANNELS 3 Zrotation Xrotation Yrotation
        JOINT LeftLeg
        {
            OFFSET -0.000000 -81.181816 0.000000
            CHANNELS 3 Zrotation Xrotation Yrotation
            JOINT LeftFoot
            {
                OFFSET -0.000000 -62.821102 0.000000
                CHANNELS 3 Zrotation Xrotation Yrotation
                JOINT LeftToeBase
                {
                    OFFSET -0.000000 -11.507608 26.556021
                    CHANNELS 3 Zrotation Xrotation Yrotation
                    End Site
                    {
                        OFFSET -0.000000 0.000000 7.081605
                    }
                }
            }
        }
    }
    JOINT RightUpLeg
    {
        OFFSET -17.704014 0.000000 0.000000
        CHANNELS 3 Zrotation Xrotation Yrotation
        JOINT RightLeg
        {
            OFFSET -0.000000 -81.181816 0.000000
            CHANNELS 3 Zrotation Xrotation Yrotation
            JOINT RightFoot
            {
                OFFSET -0.000000 -62.821102 0.000000
                CHANNELS 3 Zrotation Xrotation Yrotation
                JOINT RightToeBase
                {
                    OFFSET -0.000000 -11.507608 26.556021
                    CHANNELS 3 Zrotation Xrotation Yrotation
                    End Site
                    {
                        OFFSET -0.000000 0.000000 7.081605
                    }
                }
            }
        }
    }
}
MOTION
Frames:    12
Frame Time:    0.008333
13.931519    155.783081    -116.937111    -1.620674    -4.369553    41.783627    1.318911    -3.930460    0.624379    -7.584451    4.193297    0.466973    -5.699763    -0.596329    -24.133472    22.258327    4.180702    -22.085430    7.312719    5.068234    -23.292368    -28.899384    25.430359    -52.123035    -20.480169    9.556061    -99.065895    -0.469905    -14.839036    -7.403821    -16.890755    -1.555372    -0.176245    29.757322    -0.368755    79.650108    35.295868    20.427467    52.496468    10.270454    4.376917    18.022106    18.616867    -1.795285    0.813394    -12.986658    32.977047    -18.477760    3.096368    -27.713396    43.902493    0.000000    0.000000    0.000000    -16.794918    -18.153395    -12.249834    9.040618    21.785576    -15.187793    4.611532    9.558443    -14.628376    0.000000    0.000000    0.000000    
13.885935    155.773254    -116.964195    -1.615663    -4.370441    41.767052    1.491701    -3.929250    0.502323    -7.786089    4.276697    0.437617    -5.929626    -0.758472    -24.089603    22.415321    4.338780    -22.009787    7.223427    4.978204    -22.941374    -28.674370    25.541569    -52.155098    -20.649498    9.628327    -99.291924    -0.054515    -15.101071    -7.088775    -17.060144    -1.561773    -0.008417    29.992306    -0.109872    79.916672    35.472340    20.538143    52.318150    10.236129    4.462683    18.009821    18.627953    -1.812867    0.839771    -12.999029    33.003704    -18.491362    3.112319    -27.709505    43.906555    0.000000    0.000000    0.000000    -16.788445    -18.176474    -12.256486    9.025871    21.795725    -15.157301    4.605442    9.562411    -14.614772    0.000000    0.000000    0.000000    
13.848398    155.765152    -116.992805    -1.600660    -4.373372    41.751404    1.221510    -3.831332    0.816320    -7.505407    4.104288    0.523719    -5.545169    -0.472935    -24.200235    22.092854    3.967494    -22.161547    7.359653    5.143733    -23.570599    -28.901598    25.268517    -52.137444    -21.145847    10.042141    -98.962624    1.129587    -15.228849    -6.947324    -16.774979    -1.341915    -0.234592    29.848824    0.044682    79.852058    36.010456    20.845148    52.132149    9.943324    4.522562    18.020861    18.624643    -1.819329    0.857774    -12.996588    33.025341    -18.517323    3.136726    -27.702265    43.918266    0.000000    0.000000    0.000000    -16.792072    -18.184698    -12.265005    9.024717    21.790579    -15.166735    4.579195    9.587073    -14.589990    0.000000    0.000000    0.000000    
13.809946    155.759247    -117.012527    -1.587777    -4.384614    41.740993    1.242931    -3.825699    0.842430    -7.533053    4.145163    0.535867    -5.604728    -0.463190    -24.210657    22.141880    3.960360    -22.157476    7.324205    5.137934    -23.580761    -28.817719    25.218746    -52.105423    -21.516569    10.286956    -99.089622    2.100021    -15.553124    -6.615410    -16.801874    -1.302473    -0.165416    29.907749    0.279646    79.965294    36.184795    20.981112    51.969078    9.905128    4.627715    17.966413    18.631184    -1.817631    0.860643    -13.002419    33.036598    -18.514874    3.121130    -27.707825    43.906784    0.000000    0.000000    0.000000    -16.783833    -18.181862    -12.291529    9.008525    21.785389    -15.141492    4.568129    9.595314    -14.571862    0.000000    0.000000    0.000000    
13.770074    155.755661    -117.033257    -1.578891    -4.395093    41.729374    1.253379    -3.816049    0.877752    -7.548324    4.171822    0.549791    -5.620709    -0.426242    -24.225967    22.160172    3.909378    -22.161325    7.307430    5.150021    -23.608887    -28.767971    25.183199    -52.178429    -20.689600    9.784600    -98.708359    -0.799048    -14.694613    -7.400286    -16.818489    -1.275042    -0.097757    29.963108    0.482815    80.051056    36.470070    21.133217    51.802925    9.807756    4.674827    17.834444    18.641634    -1.821561    0.858106    -13.019412    33.050838    -18.514603    3.128507    -27.706615    43.923000    0.000000    0.000000    0.000000    -16.769730    -18.182917    -12.318914    8.982900    21.782665    -15.116395    4.560319    9.601571    -14.532327    0.000000    0.000000    0.000000    
13.731226    155.750565    -117.054306    -1.569944    -4.399945    41.718624    1.270278    -3.811018    0.910335    -7.572481    4.203816    0.563514    -5.652552    -0.453980    -24.222300    22.152678    3.934557    -22.156698    7.272398    5.150379    -23.618902    -28.686546    25.158018    -52.216434    -20.737930    9.850148    -98.629822    -0.738831    -14.658409    -7.449092    -16.845591    -1.227390    -0.036225    29.957069    0.739591    80.148941    36.654404    21.186382    51.724545    9.564188    4.624628    17.834841    18.645903    -1.829589    0.855871    -13.032417    33.059628    -18.483681    3.116625    -27.708630    43.909653    0.000000    0.000000    0.000000    -16.763985    -18.188957    -12.343493    8.972601    21.779272    -15.102072    4.544889    9.610308    -14.511108    0.000000    0.000000    0.000000    
13.697584    155.746078    -117.073586    -1.558823    -4.409053    41.701756    1.286322    -3.804107    0.968583    -7.597823    4.233886    0.585691    -5.678357    -0.432840    -24.254637    22.179573    3.921778    -22.182913    7.251793    5.163809    -23.686337    -28.635059    25.103310    -52.230232    -20.792868    9.908975    -98.546593    -0.814040    -14.626154    -7.489223    -16.849148    -1.147292    -0.002089    29.898891    0.958185    80.231598    36.735287    21.237053    51.714165    9.596618    4.638195    17.771233    18.648396    -1.829211    0.858015    -13.040614    33.072071    -18.473871    3.124852    -27.697670    43.913013    0.000000    0.000000    0.000000    -16.752499    -18.191145    -12.362866    8.949731    21.771931    -15.093040    4.533828    9.623408    -14.469208    0.000000    0.000000    0.000000    
13.662738    155.741577    -117.091156    -1.548666    -4.412665    41.691059    1.308568    -3.806443    1.009249    -7.653708    4.279550    0.603951    -5.678312    -0.464590    -24.259872    22.185600    3.952392    -22.192217    7.258293    5.162535    -23.695198    -28.573914    25.061979    -52.296799    -20.881346    10.000161    -98.448280    -0.785715    -14.602500    -7.548946    -16.847513    -1.103181    0.036182    29.854963    1.204424    80.323608    36.810768    21.294537    51.654312    9.540821    4.662867    17.633177    18.651516    -1.835928    0.856109    -13.055676    33.083847    -18.460968    3.146463    -27.687481    43.915985    0.000000    0.000000    0.000000    -16.746248    -18.195078    -12.384821    8.935254    21.763744    -15.071717    4.510567    9.639962    -14.455248    0.000000    0.000000    0.000000    
13.624397    155.735886    -117.110764    -1.549574    -4.411729    41.678131    1.320978    -3.809173    1.054074    -7.678874    4.302301    0.621252    -5.712442    -0.450856    -24.277122    22.238029    3.960997    -22.202324    7.240993    5.173545    -23.721052    -28.530649    25.002766    -52.334785    -20.904381    10.089620    -98.349129    -0.898032    -14.491293    -7.625855    -16.847017    -1.030770    0.078149    29.808792    1.409192    80.408012    37.022385    21.323130    51.613621    9.391593    4.567705    17.596193    18.661606    -1.856188    0.856710    -13.073155    33.102238    -18.455292    3.150735    -27.686220    43.926064    0.000000    0.000000    0.000000    -16.734741    -18.212847    -12.389794    8.932076    21.756617    -15.080053    4.472857    9.647181    -14.427755    0.000000    0.000000    0.000000    
13.587156    155.727966    -117.129089    -1.549109    -4.416436    41.670094    1.358795    -3.816992    1.085516    -7.742398    4.341816    0.636327    -5.731499    -0.431871    -24.283272    22.291744    3.949211    -22.199179    7.235339    5.185510    -23.719831    -28.465641    24.962105    -52.400993    -20.986179    10.170154    -98.261421    -0.876398    -14.474391    -7.624546    -16.841991    -0.980004    0.141067    29.797806    1.598429    80.486984    37.189365    21.381443    51.509254    9.362140    4.574671    17.556452    18.675879    -1.876076    0.841441    -13.096576    33.127480    -18.455229    3.156647    -27.692038    43.954170    0.000000    0.000000    0.000000    -16.719975    -18.221947    -12.396871    8.912769    21.746861    -15.061352    4.487527    9.652084    -14.427015    0.000000    0.000000    0.000000    
13.550565    155.724976    -117.147980    -1.543015    -4.427656    41.659161    1.383152    -3.814374    1.117744    -7.783999    4.376453    0.650849    -5.751521    -0.405798    -24.277639    22.336893    3.927214    -22.182581    7.224456    5.200325    -23.732740    -28.421896    24.918213    -52.439209    -21.050037    10.232680    -98.200500    -0.941159    -14.459342    -7.636094    -16.838299    -0.933223    0.200538    29.779293    1.791399    80.563766    37.387825    21.434549    51.371975    9.217566    4.554107    17.502886    18.688869    -1.880777    0.812404    -13.126631    33.134579    -18.415878    3.156013    -27.687628    43.949120    0.000000    0.000000    0.000000    -16.707436    -18.226833    -12.379942    8.920228    21.741720    -15.081734    4.457711    9.663170    -14.422671    0.000000    0.000000    0.000000    
13.511872    155.718430    -117.166664    -1.543389    -4.440808    41.650402    1.415316    -3.814802    1.146871    -7.823764    4.413525    0.664120    -5.767101    -0.380753    -24.282341    22.368849    3.905204    -22.178892    7.211026    5.214581    -23.734127    -28.370291    24.875568    -52.493931    -21.126900    10.321157    -98.134056    -0.913878    -14.437768    -7.638837    -16.849022    -0.893385    0.260493    29.781908    1.961272    80.624649    37.527287    21.502598    51.284050    9.311364    4.598843    17.457319    18.713799    -1.892256    0.788884    -13.161777    33.152931    -18.407248    3.163785    -27.692835    43.968681    0.000000    0.000000    0.000000    -16.687042    -18.235197    -12.378437    8.908790    21.742434    -15.069632    4.461651    9.673291    -14.421259    0.000000    0.000000    0.000000    
